<svg width="6047" height="5876" viewBox="0 0 6047 5876" fill="none" xmlns="http://www.w3.org/2000/svg">
<path d="M275.84 1093.67C319.271 977.858 380.389 923.455 402.515 876.518C402.515 794.357 415.385 688.037 451.035 594.11C520.904 371.301 644.585 50.2186 722.899 4.53525C791.527 -35.4974 864.247 196.911 908.117 409.3C965.276 427.001 1015.47 444.094 1059.6 461.466C1125.22 328.177 1258.12 96.4079 1307.34 152.66C1355.27 207.443 1331.41 484.696 1310.82 638.088C1332.38 671.53 1348.31 709.554 1360.5 754C1386 847 1328 916.5 1434.01 994.144C1583.24 1103.44 1669.07 1123.5 1669.07 1193.74C1689.64 1272.06 1486.84 1422.68 1342.07 1429.91C1197.29 1437.15 1141.52 1466.95 1053.99 1482.75C951.508 1501.24 803.606 1592.24 936.359 1817.53C1005.66 1935.13 1453.76 2092.94 1712.55 2025.61C2825.48 1736.04 3334.09 1754.16 4139.38 1935.13C4305.26 1907.97 4705.79 1755.95 4980.86 1365.09C5324.69 876.518 5225.16 793.285 5433.27 472.973C5641.38 152.66 5894.73 44.0521 6012.36 71.1968C6106.46 92.9125 5985.21 237.081 5912.83 306.45C5775.27 438.28 5695.67 447.656 5550.9 758.891C5369.93 1147.93 5252.31 1482.72 5116.58 1681.78C5013.7 1832.67 4680.98 2124.78 4502.01 2255.58C4582.15 2405.89 4600.01 2588.61 4528.45 2785.66C4312.91 3379.19 4471.19 4242.45 4709.46 4604.38C4778.83 4640.57 4895.86 4749.15 4808.99 4893.92C4722.13 5038.69 4725.96 5421.23 4771.2 5665.54C4808.99 5757.71 4591.84 5801.15 4410.87 5757.71C4229.91 5714.28 4334.62 5592.63 4471.88 5549.11C4552.91 5523.42 4635.27 5096.6 4410.87 4857.73C4190.88 4623.54 3890.33 4202.47 3721.01 3933.1C3514.14 4263.43 3378.92 4564.25 3399.83 4684.44C3428.78 4850.93 3285.59 5841.41 3111.34 5841.41L2773.15 5862.08C2676.63 5862.08 2582.8 5807.79 2651.37 5712.9C2752.46 5573 2848.52 5708.26 2997.04 5347.22C3108.56 5076.12 3095.87 4845.67 3071.74 4785.34C2905.25 4148.35 2984.98 3675.4 2997.04 3464.27C2743.69 3529.42 2133.69 3569.86 1804.94 3563.83C1899.04 3665.17 1789.86 4338.94 1804.94 4830.55C1804.94 5092.95 1798.08 5686.88 1712.55 5841.41C1690.64 5880.99 1244.44 5892.16 1219.63 5841.41C1177.39 5755 1269.96 5690.17 1378.54 5635.88C1487.12 5581.59 1579.02 5548.26 1569.97 5222.53C1564.55 5027.52 1422.85 4520.17 1259.51 4115.22L1065.72 5176.25L1006.8 5478.45L947.882 5780.65C947.882 5820.44 490.474 5833.85 490.474 5780.65C490.474 5536.17 777.804 5801.04 800.636 5301.09C815.781 4969.49 785.399 3635.74 373.18 3196.47C340.289 3170.18 305.497 3141.57 268.297 3110.12C77.1781 2884.85 -22.7511 2450.9 4.39358 2179.46C31.5382 1908.01 176.31 1509.89 194.406 1428.46C212.502 1347.02 221.551 1238.45 275.84 1093.67Z" fill="white"/>
</svg>
